<svg xmlns="http://www.w3.org/2000/svg" viewBox="0 0 32 32" width="32" height="32">
  <g transform="translate(1, 5)">
    <path fill="#2FB7FF" d="M24.5 10.5C24.5 10.2 24.5 9.9 24.4 9.6C24.4 9.3 24.3 9 24.2 8.7C23.5 6.3 21.3 4.5 18.7 4.5C17.8 4.5 17 4.7 16.2 5.1C14.9 2.6 12.3 1 9.3 1C5.1 1 1.7 4.4 1.7 8.6C1.7 8.9 1.7 9.2 1.8 9.5C1.8 9.6 1.8 9.7 1.8 9.8C0.7 10.9 0 12.4 0 14.1C0 17.4 2.7 20.1 6 20.1H8.5L12.3 16.3C12.9 15.7 13.9 15.7 14.5 16.3L17.3 19.1C17.6 19.4 17.6 19.9 17.3 20.2L14.5 23H23.5C27 23 29.8 20.2 29.8 16.7C29.8 13.6 27.6 11 24.5 10.5Z"/>
    <path fill="#FFFFFF" d="M6 17.1C4.3 17.1 3 15.8 3 14.1C3 13.1 3.5 12.2 4.2 11.6L4.8 11.1L4.6 10.4C4.5 10 4.5 9.5 4.5 9.1C4.5 6.3 6.8 4 9.6 4C11.6 4 13.4 5.2 14.2 7L14.7 8.1L15.8 7.5C16.5 7.1 17.3 6.9 18.1 6.9C20.1 6.9 21.8 8.4 22.1 10.3L22.3 11.3L23.3 11.5C25.2 11.9 26.5 13.6 26.5 15.5C26.5 17.8 24.6 19.7 22.3 19.7H17.5L18.8 18.4C20 17.2 20 15.3 18.8 14.1L16 11.3C14.8 10.1 12.9 10.1 11.7 11.3L6 17.1Z"/>
  </g>
</svg>
